<?xml version="1.0" standalone="no"?>
<!DOCTYPE svg PUBLIC "-//W3C//DTD SVG 20010904//EN"
 "http://www.w3.org/TR/2001/REC-SVG-20010904/DTD/svg10.dtd">
<svg version="1.0" xmlns="http://www.w3.org/2000/svg"
 width="50.000000pt" height="50.000000pt" viewBox="0 0 50.000000 50.000000"
 preserveAspectRatio="xMidYMid meet">
<metadata>
Created by potrace 1.16, written by Peter Selinger 2001-2019
</metadata>
<g transform="translate(0.000000,50.000000) scale(0.100000,-0.100000)"
fill="#000000" stroke="none">
<path d="M0 491 c0 -4 27 -14 59 -20 88 -17 99 -31 105 -124 4 -58 10 -85 26
-108 21 -29 21 -31 5 -43 -10 -7 -15 -18 -12 -23 4 -6 -4 -14 -18 -17 -28 -7
-32 -18 -12 -35 8 -6 12 -23 9 -41 -4 -30 -5 -31 -47 -24 -37 5 -46 3 -61 -15
-10 -12 -26 -21 -36 -21 -10 0 -18 -4 -18 -10 0 -16 57 -12 64 5 4 11 20 15
54 15 54 0 66 9 77 57 5 24 3 33 -7 33 -9 1 -7 5 5 14 9 7 17 21 17 30 0 9 4
16 9 16 20 0 18 30 -3 61 -13 19 -24 48 -24 64 -1 100 -8 127 -35 151 -40 34
-157 61 -157 35z"/>
<path d="M345 258 c-2 -13 -9 -50 -15 -82 -9 -57 -20 -85 -20 -55 0 26 -21 89
-29 89 -5 0 -16 -18 -25 -40 -9 -22 -20 -40 -26 -40 -5 0 -10 -4 -10 -10 0
-19 37 -10 47 13 10 20 11 19 22 -23 20 -75 22 -80 31 -80 5 0 11 12 14 27 3
16 10 55 17 88 l12 60 9 -35 c5 -19 14 -52 19 -72 5 -21 14 -38 18 -38 5 0 15
22 22 50 14 56 24 57 34 2 7 -41 21 -70 30 -60 8 8 -36 178 -46 178 -5 0 -14
-20 -21 -45 -14 -53 -23 -57 -32 -13 -20 102 -40 135 -51 86z"/>
</g>
</svg>
